<?xml version="1.0" encoding="utf-8"?>
<!-- Generator: Adobe Illustrator 21.0.0, SVG Export Plug-In . SVG Version: 6.00 Build 0)  -->
<svg version="1.1" id="Layer_1" xmlns="http://www.w3.org/2000/svg" xmlns:xlink="http://www.w3.org/1999/xlink" x="0px" y="0px"
	 viewBox="0 0 492 492" style="enable-background:new 0 0 492 492;" xml:space="preserve">
<g>
	<g>
		<path d="M284.6,464.3l-0.2,0.8V135.9l103.7,103.5c5.1,5.1,11.9,7.8,19.1,7.8c7.2,0,14-2.8,19.1-7.8l16.1-16.1
			c5.1-5.1,7.9-11.8,7.9-19c0-7.2-2.8-14-7.8-19L265.1,7.8C260,2.8,253.2,0,246,0c-7.2,0-14,2.8-19.1,7.8L49.5,185.3
			c-5.1,5.1-7.8,11.8-7.8,19c0,7.2,2.8,13.9,7.8,19l16.1,16.1c5.1,5.1,11.8,7.8,19,7.8c7.2,0,13.6-2.8,18.7-7.8l104.3-104.7v330
			c0,14.8,12.8,27.3,27.6,27.3H258C272.8,492,284.6,479.2,284.6,464.3z"/>
	</g>
</g>
</svg>
